<?xml version="1.0" encoding="utf-8"?>
<!-- Generator: Adobe Illustrator 22.0.0, SVG Export Plug-In . SVG Version: 6.00 Build 0)  -->
<svg version="1.1" id="Layer_1" xmlns="http://www.w3.org/2000/svg" xmlns:xlink="http://www.w3.org/1999/xlink" x="0px" y="0px"
	 viewBox="0 0 374.1 64.1" style="enable-background:new 0 0 374.1 64.1;" xml:space="preserve">
<style type="text/css">
	.st0{fill:#F4B0C6;}
	.st1{fill:#E8447A;}
</style>
<path class="st0" d="M39.3,27c0,8.4-14.2,23.7-15.2,23.7S8.9,35.4,8.9,27s6.8-15.2,15.2-15.2S39.3,18.6,39.3,27z"/>
<g>
	<g>
		<path class="st1" d="M34.1,26l-9.5-9.9c-0.2-0.3-0.7-0.3-0.9,0L14.2,26c-0.4,0.4-0.1,1.1,0.4,1.1h3.2v7c0,0.3,0.3,0.6,0.6,0.6h5.2
			c0.3,0,0.6-0.3,0.6-0.6v-2.6c0-0.3,0.3-0.6,0.6-0.6h0.9c0.3,0,0.6,0.3,0.6,0.6v2.6c0,0.3,0.3,0.6,0.6,0.6h2.7
			c0.3,0,0.6-0.3,0.6-0.6v-7h3.2C34.2,27,34.4,26.4,34.1,26z"/>
	</g>
</g>
<g>
	<g>
		<path class="st0" d="M61.2,43.4c-1.1,0-2.1-0.1-3-0.2c-0.9-0.1-1.7-0.3-2.4-0.5s-1.5-0.6-2.2-0.9v-4.4c0.9,0.8,2,1.3,3.3,1.8
			c1.3,0.4,2.5,0.6,3.8,0.6c1.2,0,2.1-0.2,2.7-0.7c0.6-0.5,0.9-1.2,0.9-2c0-0.7-0.2-1.2-0.7-1.7c-0.5-0.4-1.2-0.8-2-1.1
			c-0.8-0.3-1.7-0.6-2.7-1c-0.7-0.2-1.4-0.5-2-0.8c-0.7-0.3-1.2-0.7-1.8-1.1c-0.5-0.5-0.9-1-1.2-1.7c-0.3-0.8-0.4-1.7-0.4-2.7
			c0-0.8,0.2-1.6,0.5-2.4s0.8-1.5,1.4-2.2c0.6-0.6,1.5-1.2,2.5-1.5c1-0.4,2.2-0.6,3.6-0.6c0.9,0,1.7,0.1,2.4,0.2
			c0.7,0.1,1.3,0.3,1.9,0.5c0.6,0.2,1.3,0.5,1.9,0.8v4.4c-0.5-0.4-1.1-0.7-1.7-1.1c-0.6-0.3-1.2-0.6-1.9-0.8
			c-0.6-0.3-1.3-0.4-2.1-0.4s-1.5,0.1-2.1,0.3c-0.6,0.2-1,0.5-1.3,0.9c-0.3,0.4-0.5,0.9-0.5,1.4c0,0.7,0.2,1.2,0.6,1.6
			c0.4,0.4,0.9,0.7,1.6,1s1.5,0.5,2.3,0.8c0.9,0.3,1.7,0.6,2.5,0.9c0.8,0.3,1.5,0.7,2,1.2c0.6,0.5,1,1.1,1.4,1.8
			c0.3,0.7,0.5,1.6,0.5,2.6c0,1.2-0.3,2.4-0.8,3.4c-0.6,1.1-1.4,1.9-2.6,2.5C64.4,43,63,43.4,61.2,43.4z"/>
		<path class="st0" d="M81.3,43.5c-2.8,0-4.9-0.8-6.2-2.3c-1.4-1.5-2.1-3.7-2.1-6.6c0-3.1,0.7-5.4,2.1-6.8s3.5-2.1,6.1-2.1
			c1.9,0,3.4,0.3,4.6,1c1.2,0.7,2.2,1.6,2.8,2.9s0.9,3,0.9,4.9c0,2.9-0.7,5.1-2.2,6.6C86.1,42.7,84,43.5,81.3,43.5z M81.3,40
			c1,0,1.8-0.2,2.4-0.7c0.6-0.4,1.1-1.1,1.3-1.9c0.3-0.8,0.4-1.8,0.4-2.9c0-1.3-0.1-2.3-0.4-3.1c-0.3-0.8-0.8-1.4-1.4-1.8
			S82.2,29,81.3,29c-1,0-1.8,0.2-2.4,0.6s-1,1-1.3,1.8c-0.3,0.8-0.4,1.8-0.4,3c0,1.8,0.3,3.1,0.9,4C78.8,39.5,79.9,40,81.3,40z"/>
		<path class="st0" d="M94.4,23.7v-3.5h4.4v3.5H94.4z M94.5,43V26.3h4.2v16.6L94.5,43L94.5,43z"/>
		<path class="st0" d="M112.1,43.3c-1.1,0-2.2-0.2-3.2-0.5s-1.9-0.8-2.7-1.5s-1.4-1.6-1.9-2.7s-0.7-2.4-0.7-3.9c0-1.6,0.2-3,0.7-4.1
			c0.4-1.1,1.1-2.1,1.8-2.8c0.8-0.7,1.7-1.2,2.7-1.6c1-0.3,2.1-0.5,3.3-0.5c0.9,0,1.8,0.1,2.7,0.3s1.8,0.4,2.5,0.8v3.7
			c-0.8-0.3-1.5-0.6-2.3-0.8c-0.7-0.2-1.5-0.3-2.3-0.3c-1.6,0-2.8,0.4-3.7,1.2c-0.9,0.8-1.3,2-1.3,3.8s0.4,3.2,1.2,4.1
			c0.8,0.9,2.1,1.3,3.9,1.3c0.8,0,1.6-0.1,2.4-0.4c0.8-0.2,1.5-0.5,2.1-0.8v3.7c-0.8,0.4-1.6,0.7-2.4,0.9
			C114.1,43.2,113.1,43.3,112.1,43.3z"/>
		<path class="st0" d="M128.4,43.5c-1,0-1.9-0.1-2.7-0.3c-0.8-0.2-1.6-0.5-2.3-0.9s-1.2-1-1.6-1.7c-0.4-0.7-0.6-1.6-0.6-2.7
			c0-1.2,0.2-2.1,0.7-2.9s1.1-1.4,2-1.8s2-0.6,3.3-0.6c0.8,0,1.5,0.1,2.2,0.2s1.3,0.3,1.9,0.6c0.6,0.3,1,0.5,1.4,0.8l0.3,2.4
			c-0.5-0.3-1.1-0.6-1.8-0.7c-0.7-0.2-1.5-0.3-2.3-0.3c-1.2,0-2.1,0.2-2.6,0.6c-0.6,0.4-0.9,1-0.9,1.8c0,0.5,0.2,1,0.5,1.4
			s0.7,0.7,1.2,0.8c0.5,0.2,1,0.3,1.5,0.3c1.2,0,2.1-0.1,2.6-0.3c0.5-0.2,0.8-0.5,0.8-1.1v-6.6c0-1.1-0.3-1.9-1-2.4
			c-0.7-0.5-1.7-0.7-2.9-0.7c-1,0-1.9,0.2-2.9,0.5s-1.8,0.7-2.4,1.2v-3.8c0.6-0.4,1.5-0.7,2.7-1s2.5-0.4,3.9-0.4
			c0.6,0,1.2,0,1.8,0.1c0.6,0.1,1.3,0.3,1.9,0.5s1.1,0.6,1.6,1s0.9,1,1.2,1.6c0.3,0.7,0.4,1.4,0.4,2.4v8c0,1-0.3,1.8-1,2.4
			s-1.6,1-2.8,1.2C131.3,43.3,130,43.5,128.4,43.5z"/>
		<path class="st0" d="M146.2,43H142V19.8h4.2V43z"/>
		<path class="st0" d="M162.3,43V20.7h4.5V30h9.2v-9.3h4.5V43H176v-9.2h-9.2V43H162.3z"/>
		<path class="st0" d="M193.8,43.5c-2.8,0-4.8-0.8-6.2-2.3s-2.1-3.7-2.1-6.6c0-3.1,0.7-5.4,2.1-6.8s3.5-2.1,6.1-2.1
			c1.9,0,3.4,0.3,4.6,1c1.2,0.7,2.2,1.6,2.8,2.9s0.9,3,0.9,4.9c0,2.9-0.7,5.1-2.2,6.6C198.5,42.7,196.5,43.5,193.8,43.5z M193.8,40
			c1,0,1.8-0.2,2.4-0.7c0.6-0.4,1.1-1.1,1.3-1.9s0.4-1.8,0.4-2.9c0-1.3-0.1-2.3-0.4-3.1c-0.3-0.8-0.8-1.4-1.4-1.8
			c-0.6-0.4-1.4-0.6-2.3-0.6c-1,0-1.8,0.2-2.4,0.6c-0.6,0.4-1,1-1.3,1.8s-0.4,1.8-0.4,3c0,1.8,0.3,3.1,0.9,4
			C191.3,39.5,192.3,40,193.8,40z"/>
		<path class="st0" d="M214.5,43.5c-1.5,0-2.9-0.2-4-0.7c-1.2-0.5-2-1.2-2.7-2.2s-0.9-2.3-0.9-3.8V26.2h4.2v10
			c0,1.2,0.3,2.2,0.8,2.8c0.6,0.6,1.4,0.9,2.6,0.9c1.2,0,2.1-0.3,2.6-0.9s0.8-1.5,0.8-2.8v-10h4v10.5c0,2.3-0.7,4-2,5.1
			C218.7,42.9,216.9,43.5,214.5,43.5z"/>
		<path class="st0" d="M232.6,43.5c-1.2,0-2.2-0.1-3.1-0.4c-0.8-0.3-1.7-0.6-2.4-0.9v-3.8c0.5,0.3,1,0.6,1.6,0.9s1.2,0.5,1.8,0.7
			c0.7,0.2,1.4,0.3,2.1,0.3c0.9,0,1.5-0.2,1.9-0.5s0.6-0.8,0.6-1.3c0-0.4-0.2-0.8-0.5-1c-0.3-0.3-0.8-0.5-1.3-0.6
			c-0.5-0.2-1.1-0.4-1.7-0.5c-0.6-0.1-1.1-0.3-1.7-0.5c-0.6-0.2-1.1-0.5-1.5-0.9c-0.5-0.4-0.8-0.9-1.1-1.4c-0.3-0.6-0.4-1.3-0.4-2.1
			c0-1,0.2-1.8,0.6-2.5s0.9-1.2,1.6-1.7c0.7-0.4,1.4-0.7,2.1-0.9s1.5-0.3,2.2-0.2c1.3,0,2.3,0.2,3.1,0.4s1.5,0.6,2.2,1v3.5
			c-0.8-0.4-1.5-0.8-2.2-1.1c-0.7-0.3-1.6-0.5-2.5-0.5s-1.5,0.1-2,0.4s-0.7,0.7-0.7,1.2s0.1,0.8,0.4,1.1c0.3,0.3,0.7,0.5,1.1,0.7
			c0.5,0.2,1,0.3,1.5,0.5c0.6,0.2,1.1,0.3,1.7,0.5c0.6,0.2,1.1,0.5,1.7,0.8c0.5,0.3,0.9,0.8,1.3,1.4s0.5,1.4,0.5,2.3
			c0,1.3-0.4,2.4-1,3.1c-0.7,0.8-1.5,1.4-2.6,1.7S233.8,43.5,232.6,43.5z"/>
		<path class="st0" d="M244.5,23.7v-3.5h4.4v3.5H244.5z M244.6,43V26.3h4.2v16.6L244.6,43L244.6,43z"/>
		<path class="st0" d="M254.6,27.6c0.5-0.2,1-0.5,1.7-0.7c0.6-0.2,1.3-0.4,2.1-0.6c0.8-0.2,1.5-0.3,2.3-0.4s1.5-0.1,2.2-0.1
			c1.5,0,2.8,0.2,3.8,0.6s1.8,1.1,2.3,1.9c0.5,0.9,0.8,2,0.8,3.5V43h-4.2V32.5c0-0.4-0.1-0.8-0.2-1.2c-0.1-0.4-0.3-0.7-0.6-1
			s-0.6-0.5-1.1-0.7s-1.1-0.2-1.8-0.2c-0.6,0-1.1,0.1-1.7,0.2c-0.6,0.1-1.1,0.3-1.5,0.4v13h-4.2L254.6,27.6L254.6,27.6z"/>
		<path class="st0" d="M282.1,43.5c-1.6-0.1-2.9-0.4-4-1s-2-1.6-2.5-2.8c-0.6-1.2-0.9-2.7-0.9-4.5c0-1.9,0.2-3.4,0.7-4.6
			s1.1-2.2,1.9-2.8c0.8-0.7,1.8-1.2,2.9-1.4c1.1-0.3,2.3-0.4,3.6-0.4c1.3,0,2.4,0.2,3.4,0.5s1.8,0.8,2.4,1.5
			c0.6,0.7,0.9,1.5,0.9,2.4v13.1c0,1-0.2,2-0.5,2.8c-0.3,0.8-0.8,1.5-1.5,2.1c-0.7,0.6-1.5,1.1-2.6,1.4c-1.1,0.3-2.2,0.5-3.6,0.5
			c-1.3,0-2.5-0.1-3.5-0.3c-1-0.2-1.8-0.4-2.3-0.7v-3.8c0.3,0.1,0.8,0.3,1.4,0.5c0.6,0.2,1.2,0.3,2,0.5c0.7,0.1,1.5,0.2,2.2,0.2
			c1.2,0,2.1-0.2,2.7-0.5s1-0.7,1.2-1.2c0.2-0.5,0.3-1.1,0.3-1.7v-2.6l1,0.7c-0.4,0.4-0.8,0.8-1.4,1.1s-1.1,0.6-1.8,0.8
			C283.5,43.4,282.8,43.5,282.1,43.5z M283,40.2c0.6,0,1.2-0.1,1.8-0.2c0.6-0.1,1.1-0.4,1.6-0.6v-8.2c0-0.5-0.1-0.9-0.4-1.2
			c-0.3-0.3-0.6-0.4-1.1-0.5s-0.9-0.1-1.4-0.1c-1.2,0-2.1,0.2-2.8,0.7s-1.1,1.2-1.4,2c-0.3,0.9-0.4,1.8-0.4,2.9
			c0,1.6,0.4,2.9,1.1,3.8C280.6,39.7,281.6,40.2,283,40.2z"/>
		<path class="st0" d="M306.5,43V20.7h4.7l7.8,11.2l-2.5,0.2l8.1-11.4h4.6V43h-4.5V24.3l1,1.2l-8,10.9l-7.8-10.9l1.1-0.9V43H306.5z"
			/>
		<path class="st0" d="M341.2,43.5c-1,0-1.9-0.1-2.7-0.3c-0.8-0.2-1.6-0.5-2.3-0.9c-0.7-0.4-1.2-1-1.6-1.7S334,39,334,37.9
			c0-1.2,0.2-2.1,0.7-2.9s1.1-1.4,2-1.8s2-0.6,3.3-0.6c0.8,0,1.5,0.1,2.2,0.2s1.3,0.3,1.9,0.6c0.6,0.3,1,0.5,1.4,0.8l0.3,2.4
			c-0.5-0.3-1.1-0.6-1.8-0.7c-0.7-0.2-1.5-0.3-2.3-0.3c-1.2,0-2.1,0.2-2.6,0.6c-0.6,0.4-0.9,1-0.9,1.8c0,0.5,0.2,1,0.5,1.4
			s0.7,0.7,1.2,0.8c0.5,0.2,1,0.3,1.5,0.3c1.2,0,2.1-0.1,2.6-0.3c0.5-0.2,0.8-0.5,0.8-1.1v-6.6c0-1.1-0.3-1.9-1-2.4
			s-1.7-0.7-2.9-0.7c-1,0-1.9,0.2-2.9,0.5s-1.8,0.7-2.4,1.2v-3.8c0.6-0.4,1.5-0.7,2.7-1s2.5-0.4,3.9-0.4c0.6,0,1.2,0,1.8,0.1
			c0.6,0.1,1.3,0.3,1.9,0.5s1.1,0.6,1.6,1s0.9,1,1.2,1.6c0.3,0.7,0.4,1.4,0.4,2.4v8c0,1-0.3,1.8-1,2.4s-1.6,1-2.8,1.2
			C344.2,43.3,342.8,43.5,341.2,43.5z"/>
		<path class="st0" d="M363.2,43.4c-0.4,0-0.9,0-1.5-0.1s-1.3-0.2-1.9-0.4c-0.7-0.2-1.2-0.5-1.7-1l0.9-1.4v8.8h-4.2V29.6
			c0-0.7,0.2-1.3,0.7-1.8c0.4-0.5,1-0.9,1.7-1.2c0.7-0.3,1.5-0.5,2.4-0.7c0.9-0.1,1.9-0.2,2.8-0.2c1.6,0,3,0.3,4.2,0.8
			c1.3,0.6,2.2,1.5,3,2.8c0.7,1.3,1.1,3.1,1.1,5.4c0,1.7-0.3,3.2-0.9,4.5s-1.5,2.3-2.6,3C366.2,43.1,364.8,43.4,363.2,43.4z
			 M362.1,40c1,0,1.8-0.2,2.4-0.6s1.1-1,1.4-1.7c0.3-0.8,0.5-1.8,0.5-3c0-1.1-0.1-2-0.3-2.8c-0.2-0.8-0.7-1.4-1.3-1.9
			c-0.6-0.5-1.5-0.7-2.6-0.7s-1.9,0.1-2.5,0.3c-0.6,0.2-0.8,0.5-0.8,0.9v8.6c0.5,0.3,1,0.5,1.6,0.6C361.1,39.9,361.6,40,362.1,40z"
			/>
	</g>
</g>
</svg>
